<svg xmlns="http://www.w3.org/2000/svg" version="1.1" xmlns:xlink="http://www.w3.org/1999/xlink" xmlns:svgjs="http://svgjs.dev/svgjs" viewBox="0 0 800 800" width="800" height="800"><g stroke-width="1" stroke="hsla(0, 0%, 80%, 1.00)" fill="none"><rect width="44.44444444444444" height="53.333333333333336" x="0" y="0"></rect><rect width="44.44444444444444" height="53.333333333333336" x="44.44444444444444" y="0"></rect><rect width="44.44444444444444" height="53.333333333333336" x="88.88888888888889" y="0"></rect><rect width="44.44444444444444" height="53.333333333333336" x="133.33333333333331" y="0"></rect><rect width="44.44444444444444" height="53.333333333333336" x="177.77777777777777" y="0"></rect><rect width="44.44444444444444" height="53.333333333333336" x="222.22222222222223" y="0"></rect><rect width="44.44444444444444" height="53.333333333333336" x="266.6666666666667" y="0"></rect><rect width="44.44444444444444" height="53.333333333333336" x="311.11111111111114" y="0"></rect><rect width="44.44444444444444" height="53.333333333333336" x="355.5555555555556" y="0"></rect><rect width="44.44444444444444" height="53.333333333333336" x="400.00000000000006" y="0"></rect><rect width="44.44444444444444" height="53.333333333333336" x="444.4444444444445" y="0"></rect><rect width="44.44444444444444" height="53.333333333333336" x="488.88888888888897" y="0"></rect><rect width="44.44444444444444" height="53.333333333333336" x="533.3333333333334" y="0"></rect><rect width="44.44444444444444" height="53.333333333333336" x="577.7777777777778" y="0"></rect><rect width="44.44444444444444" height="53.333333333333336" x="622.2222222222223" y="0"></rect><rect width="44.44444444444444" height="53.333333333333336" x="666.6666666666667" y="0"></rect><rect width="44.44444444444444" height="53.333333333333336" x="711.1111111111112" y="0"></rect><rect width="44.44444444444444" height="53.333333333333336" x="755.5555555555557" y="0"></rect><rect width="44.44444444444444" height="53.333333333333336" x="800.0000000000001" y="0"></rect><rect width="44.44444444444444" height="53.333333333333336" x="0" y="53.333333333333336"></rect><rect width="44.44444444444444" height="53.333333333333336" x="44.44444444444444" y="53.333333333333336"></rect><rect width="44.44444444444444" height="53.333333333333336" x="88.88888888888889" y="53.333333333333336"></rect><rect width="44.44444444444444" height="53.333333333333336" x="133.33333333333331" y="53.333333333333336"></rect><rect width="44.44444444444444" height="53.333333333333336" x="177.77777777777777" y="53.333333333333336"></rect><rect width="44.44444444444444" height="53.333333333333336" x="222.22222222222223" y="53.333333333333336"></rect><rect width="44.44444444444444" height="53.333333333333336" x="266.6666666666667" y="53.333333333333336"></rect><rect width="44.44444444444444" height="53.333333333333336" x="311.11111111111114" y="53.333333333333336"></rect><rect width="44.44444444444444" height="53.333333333333336" x="355.5555555555556" y="53.333333333333336"></rect><rect width="44.44444444444444" height="53.333333333333336" x="400.00000000000006" y="53.333333333333336"></rect><rect width="44.44444444444444" height="53.333333333333336" x="444.4444444444445" y="53.333333333333336"></rect><rect width="44.44444444444444" height="53.333333333333336" x="488.88888888888897" y="53.333333333333336"></rect><rect width="44.44444444444444" height="53.333333333333336" x="533.3333333333334" y="53.333333333333336"></rect><rect width="44.44444444444444" height="53.333333333333336" x="577.7777777777778" y="53.333333333333336"></rect><rect width="44.44444444444444" height="53.333333333333336" x="622.2222222222223" y="53.333333333333336"></rect><rect width="44.44444444444444" height="53.333333333333336" x="666.6666666666667" y="53.333333333333336"></rect><rect width="44.44444444444444" height="53.333333333333336" x="711.1111111111112" y="53.333333333333336"></rect><rect width="44.44444444444444" height="53.333333333333336" x="755.5555555555557" y="53.333333333333336"></rect><rect width="44.44444444444444" height="53.333333333333336" x="800.0000000000001" y="53.333333333333336"></rect><rect width="44.44444444444444" height="53.333333333333336" x="0" y="106.66666666666667"></rect><rect width="44.44444444444444" height="53.333333333333336" x="44.44444444444444" y="106.66666666666667"></rect><rect width="44.44444444444444" height="53.333333333333336" x="88.88888888888889" y="106.66666666666667"></rect><rect width="44.44444444444444" height="53.333333333333336" x="133.33333333333331" y="106.66666666666667"></rect><rect width="44.44444444444444" height="53.333333333333336" x="177.77777777777777" y="106.66666666666667"></rect><rect width="44.44444444444444" height="53.333333333333336" x="222.22222222222223" y="106.66666666666667"></rect><rect width="44.44444444444444" height="53.333333333333336" x="266.6666666666667" y="106.66666666666667"></rect><rect width="44.44444444444444" height="53.333333333333336" x="311.11111111111114" y="106.66666666666667"></rect><rect width="44.44444444444444" height="53.333333333333336" x="355.5555555555556" y="106.66666666666667"></rect><rect width="44.44444444444444" height="53.333333333333336" x="400.00000000000006" y="106.66666666666667"></rect><rect width="44.44444444444444" height="53.333333333333336" x="444.4444444444445" y="106.66666666666667"></rect><rect width="44.44444444444444" height="53.333333333333336" x="488.88888888888897" y="106.66666666666667"></rect><rect width="44.44444444444444" height="53.333333333333336" x="533.3333333333334" y="106.66666666666667"></rect><rect width="44.44444444444444" height="53.333333333333336" x="577.7777777777778" y="106.66666666666667"></rect><rect width="44.44444444444444" height="53.333333333333336" x="622.2222222222223" y="106.66666666666667"></rect><rect width="44.44444444444444" height="53.333333333333336" x="666.6666666666667" y="106.66666666666667"></rect><rect width="44.44444444444444" height="53.333333333333336" x="711.1111111111112" y="106.66666666666667"></rect><rect width="44.44444444444444" height="53.333333333333336" x="755.5555555555557" y="106.66666666666667"></rect><rect width="44.44444444444444" height="53.333333333333336" x="800.0000000000001" y="106.66666666666667"></rect><rect width="44.44444444444444" height="53.333333333333336" x="0" y="160"></rect><rect width="44.44444444444444" height="53.333333333333336" x="44.44444444444444" y="160"></rect><rect width="44.44444444444444" height="53.333333333333336" x="88.88888888888889" y="160"></rect><rect width="44.44444444444444" height="53.333333333333336" x="133.33333333333331" y="160"></rect><rect width="44.44444444444444" height="53.333333333333336" x="177.77777777777777" y="160"></rect><rect width="44.44444444444444" height="53.333333333333336" x="222.22222222222223" y="160"></rect><rect width="44.44444444444444" height="53.333333333333336" x="266.6666666666667" y="160"></rect><rect width="44.44444444444444" height="53.333333333333336" x="311.11111111111114" y="160"></rect><rect width="44.44444444444444" height="53.333333333333336" x="355.5555555555556" y="160"></rect><rect width="44.44444444444444" height="53.333333333333336" x="400.00000000000006" y="160"></rect><rect width="44.44444444444444" height="53.333333333333336" x="444.4444444444445" y="160"></rect><rect width="44.44444444444444" height="53.333333333333336" x="488.88888888888897" y="160"></rect><rect width="44.44444444444444" height="53.333333333333336" x="533.3333333333334" y="160"></rect><rect width="44.44444444444444" height="53.333333333333336" x="577.7777777777778" y="160"></rect><rect width="44.44444444444444" height="53.333333333333336" x="622.2222222222223" y="160"></rect><rect width="44.44444444444444" height="53.333333333333336" x="666.6666666666667" y="160"></rect><rect width="44.44444444444444" height="53.333333333333336" x="711.1111111111112" y="160"></rect><rect width="44.44444444444444" height="53.333333333333336" x="755.5555555555557" y="160"></rect><rect width="44.44444444444444" height="53.333333333333336" x="800.0000000000001" y="160"></rect><rect width="44.44444444444444" height="53.333333333333336" x="0" y="213.33333333333334"></rect><rect width="44.44444444444444" height="53.333333333333336" x="44.44444444444444" y="213.33333333333334"></rect><rect width="44.44444444444444" height="53.333333333333336" x="88.88888888888889" y="213.33333333333334"></rect><rect width="44.44444444444444" height="53.333333333333336" x="133.33333333333331" y="213.33333333333334"></rect><rect width="44.44444444444444" height="53.333333333333336" x="177.77777777777777" y="213.33333333333334"></rect><rect width="44.44444444444444" height="53.333333333333336" x="222.22222222222223" y="213.33333333333334"></rect><rect width="44.44444444444444" height="53.333333333333336" x="266.6666666666667" y="213.33333333333334"></rect><rect width="44.44444444444444" height="53.333333333333336" x="311.11111111111114" y="213.33333333333334"></rect><rect width="44.44444444444444" height="53.333333333333336" x="355.5555555555556" y="213.33333333333334"></rect><rect width="44.44444444444444" height="53.333333333333336" x="400.00000000000006" y="213.33333333333334"></rect><rect width="44.44444444444444" height="53.333333333333336" x="444.4444444444445" y="213.33333333333334"></rect><rect width="44.44444444444444" height="53.333333333333336" x="488.88888888888897" y="213.33333333333334"></rect><rect width="44.44444444444444" height="53.333333333333336" x="533.3333333333334" y="213.33333333333334"></rect><rect width="44.44444444444444" height="53.333333333333336" x="577.7777777777778" y="213.33333333333334"></rect><rect width="44.44444444444444" height="53.333333333333336" x="622.2222222222223" y="213.33333333333334"></rect><rect width="44.44444444444444" height="53.333333333333336" x="666.6666666666667" y="213.33333333333334"></rect><rect width="44.44444444444444" height="53.333333333333336" x="711.1111111111112" y="213.33333333333334"></rect><rect width="44.44444444444444" height="53.333333333333336" x="755.5555555555557" y="213.33333333333334"></rect><rect width="44.44444444444444" height="53.333333333333336" x="800.0000000000001" y="213.33333333333334"></rect><rect width="44.44444444444444" height="53.333333333333336" x="0" y="266.6666666666667"></rect><rect width="44.44444444444444" height="53.333333333333336" x="44.44444444444444" y="266.6666666666667"></rect><rect width="44.44444444444444" height="53.333333333333336" x="88.88888888888889" y="266.6666666666667"></rect><rect width="44.44444444444444" height="53.333333333333336" x="133.33333333333331" y="266.6666666666667"></rect><rect width="44.44444444444444" height="53.333333333333336" x="177.77777777777777" y="266.6666666666667"></rect><rect width="44.44444444444444" height="53.333333333333336" x="222.22222222222223" y="266.6666666666667"></rect><rect width="44.44444444444444" height="53.333333333333336" x="266.6666666666667" y="266.6666666666667"></rect><rect width="44.44444444444444" height="53.333333333333336" x="311.11111111111114" y="266.6666666666667"></rect><rect width="44.44444444444444" height="53.333333333333336" x="355.5555555555556" y="266.6666666666667"></rect><rect width="44.44444444444444" height="53.333333333333336" x="400.00000000000006" y="266.6666666666667"></rect><rect width="44.44444444444444" height="53.333333333333336" x="444.4444444444445" y="266.6666666666667"></rect><rect width="44.44444444444444" height="53.333333333333336" x="488.88888888888897" y="266.6666666666667"></rect><rect width="44.44444444444444" height="53.333333333333336" x="533.3333333333334" y="266.6666666666667"></rect><rect width="44.44444444444444" height="53.333333333333336" x="577.7777777777778" y="266.6666666666667"></rect><rect width="44.44444444444444" height="53.333333333333336" x="622.2222222222223" y="266.6666666666667"></rect><rect width="44.44444444444444" height="53.333333333333336" x="666.6666666666667" y="266.6666666666667"></rect><rect width="44.44444444444444" height="53.333333333333336" x="711.1111111111112" y="266.6666666666667"></rect><rect width="44.44444444444444" height="53.333333333333336" x="755.5555555555557" y="266.6666666666667"></rect><rect width="44.44444444444444" height="53.333333333333336" x="800.0000000000001" y="266.6666666666667"></rect><rect width="44.44444444444444" height="53.333333333333336" x="0" y="320"></rect><rect width="44.44444444444444" height="53.333333333333336" x="44.44444444444444" y="320"></rect><rect width="44.44444444444444" height="53.333333333333336" x="88.88888888888889" y="320"></rect><rect width="44.44444444444444" height="53.333333333333336" x="133.33333333333331" y="320"></rect><rect width="44.44444444444444" height="53.333333333333336" x="177.77777777777777" y="320"></rect><rect width="44.44444444444444" height="53.333333333333336" x="222.22222222222223" y="320"></rect><rect width="44.44444444444444" height="53.333333333333336" x="266.6666666666667" y="320"></rect><rect width="44.44444444444444" height="53.333333333333336" x="311.11111111111114" y="320"></rect><rect width="44.44444444444444" height="53.333333333333336" x="355.5555555555556" y="320"></rect><rect width="44.44444444444444" height="53.333333333333336" x="400.00000000000006" y="320"></rect><rect width="44.44444444444444" height="53.333333333333336" x="444.4444444444445" y="320"></rect><rect width="44.44444444444444" height="53.333333333333336" x="488.88888888888897" y="320"></rect><rect width="44.44444444444444" height="53.333333333333336" x="533.3333333333334" y="320"></rect><rect width="44.44444444444444" height="53.333333333333336" x="577.7777777777778" y="320"></rect><rect width="44.44444444444444" height="53.333333333333336" x="622.2222222222223" y="320"></rect><rect width="44.44444444444444" height="53.333333333333336" x="666.6666666666667" y="320"></rect><rect width="44.44444444444444" height="53.333333333333336" x="711.1111111111112" y="320"></rect><rect width="44.44444444444444" height="53.333333333333336" x="755.5555555555557" y="320"></rect><rect width="44.44444444444444" height="53.333333333333336" x="800.0000000000001" y="320"></rect><rect width="44.44444444444444" height="53.333333333333336" x="0" y="373.3333333333333"></rect><rect width="44.44444444444444" height="53.333333333333336" x="44.44444444444444" y="373.3333333333333"></rect><rect width="44.44444444444444" height="53.333333333333336" x="88.88888888888889" y="373.3333333333333"></rect><rect width="44.44444444444444" height="53.333333333333336" x="133.33333333333331" y="373.3333333333333"></rect><rect width="44.44444444444444" height="53.333333333333336" x="177.77777777777777" y="373.3333333333333"></rect><rect width="44.44444444444444" height="53.333333333333336" x="222.22222222222223" y="373.3333333333333"></rect><rect width="44.44444444444444" height="53.333333333333336" x="266.6666666666667" y="373.3333333333333"></rect><rect width="44.44444444444444" height="53.333333333333336" x="311.11111111111114" y="373.3333333333333"></rect><rect width="44.44444444444444" height="53.333333333333336" x="355.5555555555556" y="373.3333333333333"></rect><rect width="44.44444444444444" height="53.333333333333336" x="400.00000000000006" y="373.3333333333333"></rect><rect width="44.44444444444444" height="53.333333333333336" x="444.4444444444445" y="373.3333333333333"></rect><rect width="44.44444444444444" height="53.333333333333336" x="488.88888888888897" y="373.3333333333333"></rect><rect width="44.44444444444444" height="53.333333333333336" x="533.3333333333334" y="373.3333333333333"></rect><rect width="44.44444444444444" height="53.333333333333336" x="577.7777777777778" y="373.3333333333333"></rect><rect width="44.44444444444444" height="53.333333333333336" x="622.2222222222223" y="373.3333333333333"></rect><rect width="44.44444444444444" height="53.333333333333336" x="666.6666666666667" y="373.3333333333333"></rect><rect width="44.44444444444444" height="53.333333333333336" x="711.1111111111112" y="373.3333333333333"></rect><rect width="44.44444444444444" height="53.333333333333336" x="755.5555555555557" y="373.3333333333333"></rect><rect width="44.44444444444444" height="53.333333333333336" x="800.0000000000001" y="373.3333333333333"></rect><rect width="44.44444444444444" height="53.333333333333336" x="0" y="426.66666666666663"></rect><rect width="44.44444444444444" height="53.333333333333336" x="44.44444444444444" y="426.66666666666663"></rect><rect width="44.44444444444444" height="53.333333333333336" x="88.88888888888889" y="426.66666666666663"></rect><rect width="44.44444444444444" height="53.333333333333336" x="133.33333333333331" y="426.66666666666663"></rect><rect width="44.44444444444444" height="53.333333333333336" x="177.77777777777777" y="426.66666666666663"></rect><rect width="44.44444444444444" height="53.333333333333336" x="222.22222222222223" y="426.66666666666663"></rect><rect width="44.44444444444444" height="53.333333333333336" x="266.6666666666667" y="426.66666666666663"></rect><rect width="44.44444444444444" height="53.333333333333336" x="311.11111111111114" y="426.66666666666663"></rect><rect width="44.44444444444444" height="53.333333333333336" x="355.5555555555556" y="426.66666666666663"></rect><rect width="44.44444444444444" height="53.333333333333336" x="400.00000000000006" y="426.66666666666663"></rect><rect width="44.44444444444444" height="53.333333333333336" x="444.4444444444445" y="426.66666666666663"></rect><rect width="44.44444444444444" height="53.333333333333336" x="488.88888888888897" y="426.66666666666663"></rect><rect width="44.44444444444444" height="53.333333333333336" x="533.3333333333334" y="426.66666666666663"></rect><rect width="44.44444444444444" height="53.333333333333336" x="577.7777777777778" y="426.66666666666663"></rect><rect width="44.44444444444444" height="53.333333333333336" x="622.2222222222223" y="426.66666666666663"></rect><rect width="44.44444444444444" height="53.333333333333336" x="666.6666666666667" y="426.66666666666663"></rect><rect width="44.44444444444444" height="53.333333333333336" x="711.1111111111112" y="426.66666666666663"></rect><rect width="44.44444444444444" height="53.333333333333336" x="755.5555555555557" y="426.66666666666663"></rect><rect width="44.44444444444444" height="53.333333333333336" x="800.0000000000001" y="426.66666666666663"></rect><rect width="44.44444444444444" height="53.333333333333336" x="0" y="479.99999999999994"></rect><rect width="44.44444444444444" height="53.333333333333336" x="44.44444444444444" y="479.99999999999994"></rect><rect width="44.44444444444444" height="53.333333333333336" x="88.88888888888889" y="479.99999999999994"></rect><rect width="44.44444444444444" height="53.333333333333336" x="133.33333333333331" y="479.99999999999994"></rect><rect width="44.44444444444444" height="53.333333333333336" x="177.77777777777777" y="479.99999999999994"></rect><rect width="44.44444444444444" height="53.333333333333336" x="222.22222222222223" y="479.99999999999994"></rect><rect width="44.44444444444444" height="53.333333333333336" x="266.6666666666667" y="479.99999999999994"></rect><rect width="44.44444444444444" height="53.333333333333336" x="311.11111111111114" y="479.99999999999994"></rect><rect width="44.44444444444444" height="53.333333333333336" x="355.5555555555556" y="479.99999999999994"></rect><rect width="44.44444444444444" height="53.333333333333336" x="400.00000000000006" y="479.99999999999994"></rect><rect width="44.44444444444444" height="53.333333333333336" x="444.4444444444445" y="479.99999999999994"></rect><rect width="44.44444444444444" height="53.333333333333336" x="488.88888888888897" y="479.99999999999994"></rect><rect width="44.44444444444444" height="53.333333333333336" x="533.3333333333334" y="479.99999999999994"></rect><rect width="44.44444444444444" height="53.333333333333336" x="577.7777777777778" y="479.99999999999994"></rect><rect width="44.44444444444444" height="53.333333333333336" x="622.2222222222223" y="479.99999999999994"></rect><rect width="44.44444444444444" height="53.333333333333336" x="666.6666666666667" y="479.99999999999994"></rect><rect width="44.44444444444444" height="53.333333333333336" x="711.1111111111112" y="479.99999999999994"></rect><rect width="44.44444444444444" height="53.333333333333336" x="755.5555555555557" y="479.99999999999994"></rect><rect width="44.44444444444444" height="53.333333333333336" x="800.0000000000001" y="479.99999999999994"></rect><rect width="44.44444444444444" height="53.333333333333336" x="0" y="533.3333333333333"></rect><rect width="44.44444444444444" height="53.333333333333336" x="44.44444444444444" y="533.3333333333333"></rect><rect width="44.44444444444444" height="53.333333333333336" x="88.88888888888889" y="533.3333333333333"></rect><rect width="44.44444444444444" height="53.333333333333336" x="133.33333333333331" y="533.3333333333333"></rect><rect width="44.44444444444444" height="53.333333333333336" x="177.77777777777777" y="533.3333333333333"></rect><rect width="44.44444444444444" height="53.333333333333336" x="222.22222222222223" y="533.3333333333333"></rect><rect width="44.44444444444444" height="53.333333333333336" x="266.6666666666667" y="533.3333333333333"></rect><rect width="44.44444444444444" height="53.333333333333336" x="311.11111111111114" y="533.3333333333333"></rect><rect width="44.44444444444444" height="53.333333333333336" x="355.5555555555556" y="533.3333333333333"></rect><rect width="44.44444444444444" height="53.333333333333336" x="400.00000000000006" y="533.3333333333333"></rect><rect width="44.44444444444444" height="53.333333333333336" x="444.4444444444445" y="533.3333333333333"></rect><rect width="44.44444444444444" height="53.333333333333336" x="488.88888888888897" y="533.3333333333333"></rect><rect width="44.44444444444444" height="53.333333333333336" x="533.3333333333334" y="533.3333333333333"></rect><rect width="44.44444444444444" height="53.333333333333336" x="577.7777777777778" y="533.3333333333333"></rect><rect width="44.44444444444444" height="53.333333333333336" x="622.2222222222223" y="533.3333333333333"></rect><rect width="44.44444444444444" height="53.333333333333336" x="666.6666666666667" y="533.3333333333333"></rect><rect width="44.44444444444444" height="53.333333333333336" x="711.1111111111112" y="533.3333333333333"></rect><rect width="44.44444444444444" height="53.333333333333336" x="755.5555555555557" y="533.3333333333333"></rect><rect width="44.44444444444444" height="53.333333333333336" x="800.0000000000001" y="533.3333333333333"></rect><rect width="44.44444444444444" height="53.333333333333336" x="0" y="586.6666666666666"></rect><rect width="44.44444444444444" height="53.333333333333336" x="44.44444444444444" y="586.6666666666666"></rect><rect width="44.44444444444444" height="53.333333333333336" x="88.88888888888889" y="586.6666666666666"></rect><rect width="44.44444444444444" height="53.333333333333336" x="133.33333333333331" y="586.6666666666666"></rect><rect width="44.44444444444444" height="53.333333333333336" x="177.77777777777777" y="586.6666666666666"></rect><rect width="44.44444444444444" height="53.333333333333336" x="222.22222222222223" y="586.6666666666666"></rect><rect width="44.44444444444444" height="53.333333333333336" x="266.6666666666667" y="586.6666666666666"></rect><rect width="44.44444444444444" height="53.333333333333336" x="311.11111111111114" y="586.6666666666666"></rect><rect width="44.44444444444444" height="53.333333333333336" x="355.5555555555556" y="586.6666666666666"></rect><rect width="44.44444444444444" height="53.333333333333336" x="400.00000000000006" y="586.6666666666666"></rect><rect width="44.44444444444444" height="53.333333333333336" x="444.4444444444445" y="586.6666666666666"></rect><rect width="44.44444444444444" height="53.333333333333336" x="488.88888888888897" y="586.6666666666666"></rect><rect width="44.44444444444444" height="53.333333333333336" x="533.3333333333334" y="586.6666666666666"></rect><rect width="44.44444444444444" height="53.333333333333336" x="577.7777777777778" y="586.6666666666666"></rect><rect width="44.44444444444444" height="53.333333333333336" x="622.2222222222223" y="586.6666666666666"></rect><rect width="44.44444444444444" height="53.333333333333336" x="666.6666666666667" y="586.6666666666666"></rect><rect width="44.44444444444444" height="53.333333333333336" x="711.1111111111112" y="586.6666666666666"></rect><rect width="44.44444444444444" height="53.333333333333336" x="755.5555555555557" y="586.6666666666666"></rect><rect width="44.44444444444444" height="53.333333333333336" x="800.0000000000001" y="586.6666666666666"></rect><rect width="44.44444444444444" height="53.333333333333336" x="0" y="640"></rect><rect width="44.44444444444444" height="53.333333333333336" x="44.44444444444444" y="640"></rect><rect width="44.44444444444444" height="53.333333333333336" x="88.88888888888889" y="640"></rect><rect width="44.44444444444444" height="53.333333333333336" x="133.33333333333331" y="640"></rect><rect width="44.44444444444444" height="53.333333333333336" x="177.77777777777777" y="640"></rect><rect width="44.44444444444444" height="53.333333333333336" x="222.22222222222223" y="640"></rect><rect width="44.44444444444444" height="53.333333333333336" x="266.6666666666667" y="640"></rect><rect width="44.44444444444444" height="53.333333333333336" x="311.11111111111114" y="640"></rect><rect width="44.44444444444444" height="53.333333333333336" x="355.5555555555556" y="640"></rect><rect width="44.44444444444444" height="53.333333333333336" x="400.00000000000006" y="640"></rect><rect width="44.44444444444444" height="53.333333333333336" x="444.4444444444445" y="640"></rect><rect width="44.44444444444444" height="53.333333333333336" x="488.88888888888897" y="640"></rect><rect width="44.44444444444444" height="53.333333333333336" x="533.3333333333334" y="640"></rect><rect width="44.44444444444444" height="53.333333333333336" x="577.7777777777778" y="640"></rect><rect width="44.44444444444444" height="53.333333333333336" x="622.2222222222223" y="640"></rect><rect width="44.44444444444444" height="53.333333333333336" x="666.6666666666667" y="640"></rect><rect width="44.44444444444444" height="53.333333333333336" x="711.1111111111112" y="640"></rect><rect width="44.44444444444444" height="53.333333333333336" x="755.5555555555557" y="640"></rect><rect width="44.44444444444444" height="53.333333333333336" x="800.0000000000001" y="640"></rect><rect width="44.44444444444444" height="53.333333333333336" x="0" y="693.3333333333334"></rect><rect width="44.44444444444444" height="53.333333333333336" x="44.44444444444444" y="693.3333333333334"></rect><rect width="44.44444444444444" height="53.333333333333336" x="88.88888888888889" y="693.3333333333334"></rect><rect width="44.44444444444444" height="53.333333333333336" x="133.33333333333331" y="693.3333333333334"></rect><rect width="44.44444444444444" height="53.333333333333336" x="177.77777777777777" y="693.3333333333334"></rect><rect width="44.44444444444444" height="53.333333333333336" x="222.22222222222223" y="693.3333333333334"></rect><rect width="44.44444444444444" height="53.333333333333336" x="266.6666666666667" y="693.3333333333334"></rect><rect width="44.44444444444444" height="53.333333333333336" x="311.11111111111114" y="693.3333333333334"></rect><rect width="44.44444444444444" height="53.333333333333336" x="355.5555555555556" y="693.3333333333334"></rect><rect width="44.44444444444444" height="53.333333333333336" x="400.00000000000006" y="693.3333333333334"></rect><rect width="44.44444444444444" height="53.333333333333336" x="444.4444444444445" y="693.3333333333334"></rect><rect width="44.44444444444444" height="53.333333333333336" x="488.88888888888897" y="693.3333333333334"></rect><rect width="44.44444444444444" height="53.333333333333336" x="533.3333333333334" y="693.3333333333334"></rect><rect width="44.44444444444444" height="53.333333333333336" x="577.7777777777778" y="693.3333333333334"></rect><rect width="44.44444444444444" height="53.333333333333336" x="622.2222222222223" y="693.3333333333334"></rect><rect width="44.44444444444444" height="53.333333333333336" x="666.6666666666667" y="693.3333333333334"></rect><rect width="44.44444444444444" height="53.333333333333336" x="711.1111111111112" y="693.3333333333334"></rect><rect width="44.44444444444444" height="53.333333333333336" x="755.5555555555557" y="693.3333333333334"></rect><rect width="44.44444444444444" height="53.333333333333336" x="800.0000000000001" y="693.3333333333334"></rect><rect width="44.44444444444444" height="53.333333333333336" x="0" y="746.6666666666667"></rect><rect width="44.44444444444444" height="53.333333333333336" x="44.44444444444444" y="746.6666666666667"></rect><rect width="44.44444444444444" height="53.333333333333336" x="88.88888888888889" y="746.6666666666667"></rect><rect width="44.44444444444444" height="53.333333333333336" x="133.33333333333331" y="746.6666666666667"></rect><rect width="44.44444444444444" height="53.333333333333336" x="177.77777777777777" y="746.6666666666667"></rect><rect width="44.44444444444444" height="53.333333333333336" x="222.22222222222223" y="746.6666666666667"></rect><rect width="44.44444444444444" height="53.333333333333336" x="266.6666666666667" y="746.6666666666667"></rect><rect width="44.44444444444444" height="53.333333333333336" x="311.11111111111114" y="746.6666666666667"></rect><rect width="44.44444444444444" height="53.333333333333336" x="355.5555555555556" y="746.6666666666667"></rect><rect width="44.44444444444444" height="53.333333333333336" x="400.00000000000006" y="746.6666666666667"></rect><rect width="44.44444444444444" height="53.333333333333336" x="444.4444444444445" y="746.6666666666667"></rect><rect width="44.44444444444444" height="53.333333333333336" x="488.88888888888897" y="746.6666666666667"></rect><rect width="44.44444444444444" height="53.333333333333336" x="533.3333333333334" y="746.6666666666667"></rect><rect width="44.44444444444444" height="53.333333333333336" x="577.7777777777778" y="746.6666666666667"></rect><rect width="44.44444444444444" height="53.333333333333336" x="622.2222222222223" y="746.6666666666667"></rect><rect width="44.44444444444444" height="53.333333333333336" x="666.6666666666667" y="746.6666666666667"></rect><rect width="44.44444444444444" height="53.333333333333336" x="711.1111111111112" y="746.6666666666667"></rect><rect width="44.44444444444444" height="53.333333333333336" x="755.5555555555557" y="746.6666666666667"></rect><rect width="44.44444444444444" height="53.333333333333336" x="800.0000000000001" y="746.6666666666667"></rect><rect width="44.44444444444444" height="53.333333333333336" x="0" y="800.0000000000001"></rect><rect width="44.44444444444444" height="53.333333333333336" x="44.44444444444444" y="800.0000000000001"></rect><rect width="44.44444444444444" height="53.333333333333336" x="88.88888888888889" y="800.0000000000001"></rect><rect width="44.44444444444444" height="53.333333333333336" x="133.33333333333331" y="800.0000000000001"></rect><rect width="44.44444444444444" height="53.333333333333336" x="177.77777777777777" y="800.0000000000001"></rect><rect width="44.44444444444444" height="53.333333333333336" x="222.22222222222223" y="800.0000000000001"></rect><rect width="44.44444444444444" height="53.333333333333336" x="266.6666666666667" y="800.0000000000001"></rect><rect width="44.44444444444444" height="53.333333333333336" x="311.11111111111114" y="800.0000000000001"></rect><rect width="44.44444444444444" height="53.333333333333336" x="355.5555555555556" y="800.0000000000001"></rect><rect width="44.44444444444444" height="53.333333333333336" x="400.00000000000006" y="800.0000000000001"></rect><rect width="44.44444444444444" height="53.333333333333336" x="444.4444444444445" y="800.0000000000001"></rect><rect width="44.44444444444444" height="53.333333333333336" x="488.88888888888897" y="800.0000000000001"></rect><rect width="44.44444444444444" height="53.333333333333336" x="533.3333333333334" y="800.0000000000001"></rect><rect width="44.44444444444444" height="53.333333333333336" x="577.7777777777778" y="800.0000000000001"></rect><rect width="44.44444444444444" height="53.333333333333336" x="622.2222222222223" y="800.0000000000001"></rect><rect width="44.44444444444444" height="53.333333333333336" x="666.6666666666667" y="800.0000000000001"></rect><rect width="44.44444444444444" height="53.333333333333336" x="711.1111111111112" y="800.0000000000001"></rect><rect width="44.44444444444444" height="53.333333333333336" x="755.5555555555557" y="800.0000000000001"></rect><rect width="44.44444444444444" height="53.333333333333336" x="800.0000000000001" y="800.0000000000001"></rect></g></svg>